# xmcd CD database file
#
# Track frame offsets:
#	150
#	13217
#	36197
#	59643
#	84039
#	99299
#	111270
#	147032
#	163536
#	180459
#	189479
#	202360
#
# Disc length: 3206 seconds
#
# Revision: 1
# Processed by: cddbd v1.5.1PL2 Copyright (c) Steve Scherf et al.
# Submitted via: CDex 1.51
#
DISCID=9f0c840c
DTITLE=Hampton, Lionel - Olympia 25.03.1961 (Paris Jazz Concert Highlights)
DYEAR=1961
DGENRE=Jazz
TTITLE0=The Birth Of The Blues
TTITLE1=untitled
TTITLE2=Midnight Sun
TTITLE3=Tenderly
TTITLE4=Alexander's Ragtime Band
TTITLE5=Roll'em Pete
TTITLE6=Flying Home
TTITLE7=Hey-Ba-Ba-Re-Bop
TTITLE8=On the Sunny Side Of The Street
TTITLE9=Hamp's Boogie Woogie
TTITLE10=Splanky
TTITLE11=When The Saints
EXTD=YEAR: 1961
EXTT0=
EXTT1=
EXTT2=
EXTT3=
EXTT4=
EXTT5=
EXTT6=
EXTT7=
EXTT8=
EXTT9=
EXTT10=
EXTT11=
PLAYORDER=
